<?xml version="1.0" encoding="UTF-8" standalone="no"?>
<svg
   xmlns:dc="http://purl.org/dc/elements/1.1/"
   xmlns:cc="http://creativecommons.org/ns#"
   xmlns:rdf="http://www.w3.org/1999/02/22-rdf-syntax-ns#"
   xmlns:svg="http://www.w3.org/2000/svg"
   xmlns="http://www.w3.org/2000/svg"
   xmlns:sodipodi="http://sodipodi.sourceforge.net/DTD/sodipodi-0.dtd"
   xmlns:inkscape="http://www.inkscape.org/namespaces/inkscape"
   version="1.1"
   x="0px"
   y="0px"
   width="103"
   height="103"
   viewBox="0 0 103 103"
   enable-background="new 0 0 100 100"
   xml:space="preserve"
   id="svg3022"
   inkscape:version="0.48.4 r9939"
   sodipodi:docname="kostlee.svg"
   inkscape:export-filename="/home/ruud/dev/kostlee/resources/public/gfx/apple-touch-icon-precomposed.png"
   inkscape:export-xdpi="125.83"
   inkscape:export-ydpi="125.83"><metadata
     id="metadata3032"><rdf:RDF><cc:Work
         rdf:about=""><dc:format>image/svg+xml</dc:format><dc:type
           rdf:resource="http://purl.org/dc/dcmitype/StillImage" /><dc:title></dc:title></cc:Work></rdf:RDF></metadata><defs
     id="defs3030" /><sodipodi:namedview
     pagecolor="#ffffff"
     bordercolor="#666666"
     borderopacity="1"
     objecttolerance="10"
     gridtolerance="10"
     guidetolerance="10"
     inkscape:pageopacity="0"
     inkscape:pageshadow="2"
     inkscape:window-width="1362"
     inkscape:window-height="729"
     id="namedview3028"
     showgrid="false"
     inkscape:zoom="5.61"
     inkscape:cx="-0.11278084"
     inkscape:cy="57.423859"
     inkscape:window-x="0"
     inkscape:window-y="18"
     inkscape:window-maximized="0"
     inkscape:current-layer="Your_Icon"
     fit-margin-top="0"
     fit-margin-bottom="0"
     fit-margin-right="0"
     fit-margin-left="0"
     borderlayer="false" /><g
     id="Captions"
     transform="translate(-1.5107737,2.0155985)" /><g
     id="Your_Icon"
     transform="translate(-7.0366204,10.750001)"><path
       d="m 45.812618,11.981344 26.345,0 2.408,-3.436 c 1.967,-2.965 4.134,-5.805 6.009,-8.82999997 0.89,-1.43700003 2.558,-3.78900003 1.901,-5.60900003 -0.469,-1.3 -1.669,-1.743 -2.955,-1.969 -0.93,-0.163 -5.684,-1.364 -7.603,-0.972 -1.703,0.349 -3.276,1.157 -4.91,1.725 -2.301,0.8 -4.848,1.471 -7.372,1.333 -2.181,-0.119 -4.659,-0.398 -6.715,-1.141 -1.704,-0.617 -3.35,-1.525 -5.153,-1.834 -1.557,-0.267 -7.228051,0.518705 -8.369,0.715 -8.031051,1.381705 -2.307667,7.57296373 4.006,16.582 z m 58.041982,48.181 c -6.753982,-15.562 -18.982982,-32.532 -31.793982,-40.719 l -26.58,0 c -12.808,8.189 -25.035,25.16 -31.787,40.719 -6.7699996,15.598 1.351,30.924 16.825,30.924 l 56.511,0 c 15.473982,0 23.594982,-15.326 16.824982,-30.924 z m -42.610982,14.128 0,6.316 -5.029,0 0,-5.948 c -3.863,-0.122 -7.726,-1.226 -9.935,-2.698 l 1.657,-5.765 c 2.392,1.411 5.826,2.698 9.567,2.698 3.863,0 6.5,-1.901 6.5,-4.844 0,-2.76 -2.147,-4.539 -6.685,-6.194 -6.44,-2.331 -10.61,-5.274 -10.61,-10.978 0,-5.274 3.679,-9.321 9.873,-10.425 l 0,-6.01 5.029,0 0,5.703 c 3.863,0.123 6.5,1.042 8.463,2.024 l -1.655,5.641 c -1.473,-0.675 -4.171,-2.085 -8.341,-2.085 -4.292,0 -5.825,2.208 -5.825,4.294 0,2.514 2.208,3.923 7.419,6.009 6.869,2.576 9.936,5.888 9.936,11.345 0,5.215 -3.618,9.814 -10.364,10.917 z"
       id="path3026"
       inkscape:connector-curvature="0"
       sodipodi:nodetypes="cccccccccccsscccccsscccccccsscsccccccsscsc"
       style="stroke:#ffffff;stroke-width:2;stroke-miterlimit:4;stroke-opacity:1;stroke-dasharray:none" /><rect
       style="fill:#000000"
       id="rect3050"
       width="34.046345"
       height="57.575756"
       x="39.572193"
       y="27.272726" /><path
       style="fill:#ffffff;fill-opacity:1;stroke:none"
       d="m 57.834151,81.731324 c 0,-1.31979 -0.01566,-1.471942 -0.155972,-1.514675 -0.08578,-0.02613 -0.595804,-0.111979 -1.133378,-0.190782 -1.047101,-0.153492 -2.398416,-0.546946 -3.122415,-0.909134 -0.245098,-0.122612 -0.455802,-0.23162 -0.468232,-0.242236 -0.02606,-0.02226 0.677137,-2.449309 0.738332,-2.548325 0.02235,-0.03615 0.448548,0.0944 0.947122,0.290122 0.498574,0.195719 1.29096,0.454984 1.760859,0.576145 0.753649,0.194324 0.990943,0.215648 2.013006,0.180892 1.429084,-0.04859 1.921159,-0.191252 2.521495,-0.731006 0.535994,-0.481905 0.750694,-0.966841 0.752542,-1.699737 0.0017,-0.680869 -0.222193,-1.203221 -0.734104,-1.712569 -0.482935,-0.480519 -1.148976,-0.85275 -2.669294,-1.491792 -2.340838,-0.983935 -3.217313,-1.536156 -4.140627,-2.608793 -0.688262,-0.799572 -0.885951,-1.314073 -0.929028,-2.417868 -0.0639,-1.637355 0.303573,-2.642045 1.354784,-3.70406 0.711189,-0.718498 1.761018,-1.31075 2.841559,-1.603041 l 0.601604,-0.162736 0.0012,-1.301388 c 6.5e-4,-0.715764 0.0254,-1.39163 0.05496,-1.501924 0.05221,-0.194804 0.08655,-0.200534 1.201992,-0.200534 l 1.14825,0 0,1.420563 0,1.420564 0.423351,0.05246 c 1.267573,0.157064 1.837718,0.268176 2.564539,0.499783 1.257048,0.400569 1.204317,0.289437 0.805294,1.697164 -0.185968,0.65609 -0.354189,1.220286 -0.373822,1.253769 -0.01964,0.03348 -0.426032,-0.0739 -0.903109,-0.238636 -1.778777,-0.614205 -3.440045,-0.756671 -4.609914,-0.395335 -0.711031,0.219615 -1.312652,0.753497 -1.464223,1.29936 -0.196653,0.708223 -0.06326,1.489578 0.330445,1.935598 0.335272,0.379823 1.490307,1.033743 3.227439,1.827207 1.004902,0.459006 2.155865,1.051652 2.557696,1.31699 1.588139,1.048687 2.344265,2.419112 2.344265,4.248818 0,1.503877 -0.434963,2.549075 -1.512153,3.633646 -0.763352,0.768582 -1.603171,1.241993 -2.830776,1.595726 l -0.733303,0.2113 -0.02427,1.56595 -0.02427,1.565949 -1.180927,0.02487 -1.180927,0.02487 0,-1.46717 z"
       id="path5318"
       inkscape:connector-curvature="0" /><text
       xml:space="preserve"
       style="font-size:40px;font-style:normal;font-weight:normal;line-height:125%;letter-spacing:0px;word-spacing:0px;fill:#ffffff;fill-opacity:1;stroke:none;font-family:Sans"
       x="43.39394"
       y="50.802139"
       id="text5300"
       sodipodi:linespacing="125%"><tspan
         sodipodi:role="line"
         id="tspan5302"
         x="43.39394"
         y="50.802139"
         style="font-size:18px">LEE</tspan></text>
<rect
       style="fill:#ffffff;fill-opacity:1;stroke:#ffffff;stroke-width:0.89583236;stroke-opacity:1"
       id="rect5839"
       width="25.23786"
       height="6.3430271"
       x="46.154697"
       y="12.603887" /></g></svg>