<?xml version="1.0" encoding="UTF-8" standalone="no"?>
<svg
   xmlns:dc="http://purl.org/dc/elements/1.1/"
   xmlns:cc="http://creativecommons.org/ns#"
   xmlns:rdf="http://www.w3.org/1999/02/22-rdf-syntax-ns#"
   xmlns:svg="http://www.w3.org/2000/svg"
   xmlns="http://www.w3.org/2000/svg"
   xmlns:sodipodi="http://sodipodi.sourceforge.net/DTD/sodipodi-0.dtd"
   xmlns:inkscape="http://www.inkscape.org/namespaces/inkscape"
   version="1.1"
   id="Layer_1"
   x="0px"
   y="0px"
   width="33.615002"
   height="92.557999"
   viewBox="0 0 33.615002 92.557999"
   enable-background="new 0 0 100 100"
   xml:space="preserve"
   inkscape:version="0.48.4 r9939"
   sodipodi:docname="man.svg"><metadata
     id="metadata3043"><rdf:RDF><cc:Work
         rdf:about=""><dc:format>image/svg+xml</dc:format><dc:type
           rdf:resource="http://purl.org/dc/dcmitype/StillImage" /></cc:Work></rdf:RDF></metadata><defs
     id="defs3041" /><sodipodi:namedview
     pagecolor="#ffffff"
     bordercolor="#666666"
     borderopacity="1"
     objecttolerance="10"
     gridtolerance="10"
     guidetolerance="10"
     inkscape:pageopacity="0"
     inkscape:pageshadow="2"
     inkscape:window-width="1362"
     inkscape:window-height="729"
     id="namedview3039"
     showgrid="false"
     fit-margin-top="0"
     fit-margin-left="0"
     fit-margin-right="0"
     fit-margin-bottom="0"
     inkscape:zoom="5.61"
     inkscape:cx="16.808"
     inkscape:cy="46.279"
     inkscape:window-x="0"
     inkscape:window-y="18"
     inkscape:window-maximized="0"
     inkscape:current-layer="Layer_1" /><path
     d="m 24.431,7.63 c 0,4.214 -3.416,7.63 -7.632,7.63 -4.211,0 -7.626,-3.416 -7.626,-7.63 0,-4.214 3.416,-7.63 7.626,-7.63 4.216,0 7.632,3.416 7.632,7.63 z"
     id="path3035"
     inkscape:connector-curvature="0" /><path
     d="m 33.615,24.581 v 26.007 c 0,1.822 -1.473,3.295 -3.268,3.295 -1.82,0 -3.268,-1.473 -3.268,-3.295 V 28.411 c 0,-0.294 -0.242,-0.535 -0.535,-0.535 -0.27,0 -0.51,0.241 -0.51,0.535 v 59.782 h -0.025 c 0,2.409 -1.957,4.365 -4.34,4.365 -2.412,0 -4.367,-1.956 -4.367,-4.365 0,-0.107 0,-0.188 0.027,-0.296 v -34.55 c 0,-0.268 -0.24,-0.509 -0.508,-0.509 -0.296,0 -0.536,0.241 -0.536,0.509 v 34.846 c 0,2.409 -1.958,4.365 -4.366,4.365 -2.411,0 -4.365,-1.956 -4.365,-4.365 0,-0.107 0,-0.188 0.026,-0.296 V 52.839 H 7.554 V 28.411 c 0,-0.294 -0.215,-0.535 -0.51,-0.535 -0.296,0 -0.51,0.241 -0.51,0.535 v 22.177 c 0,1.822 -1.472,3.295 -3.267,3.295 C 1.446,53.883 0,52.41 0,50.588 V 24.581 c 0,-3.829 2.837,-6.989 6.534,-7.473 0.321,-0.054 0.669,-0.079 1.02,-0.079 h 18.479 c 0.348,0 0.695,0.025 1.045,0.079 3.699,0.509 6.537,3.644 6.537,7.473 z"
     id="path3037"
     inkscape:connector-curvature="0" /></svg>